/* XPM */
static char *fec3b178e1ee4cbbf4d81246d4e5e724[] = {
/* columns rows colors chars-per-pixel */
"80 80 231 2 ",
"   c black",
".  c gray1",
"X  c #040404",
"o  c gray2",
"O  c #060606",
"+  c #090909",
"@  c #0E0E0E",
"#  c gray6",
"$  c #191919",
"%  c gray10",
"&  c #1D1D1D",
"*  c #202020",
"=  c gray13",
"-  c #232323",
";  c gray14",
":  c #252525",
">  c gray15",
",  c #272727",
"<  c #282828",
"1  c gray16",
"2  c #2A2A2A",
"3  c gray17",
"4  c #2C2C2C",
"5  c #2D2D2D",
"6  c gray18",
"7  c #2F2F2F",
"8  c gray19",
"9  c #313131",
"0  c #323232",
"q  c gray20",
"w  c #343434",
"e  c #353535",
"r  c gray21",
"t  c #373737",
"y  c gray22",
"u  c #393939",
"i  c #3A3A3A",
"p  c gray23",
"a  c #3C3C3C",
"s  c gray24",
"d  c #3E3E3E",
"f  c #3F3F3F",
"g  c gray25",
"h  c #414141",
"j  c gray26",
"k  c #434343",
"l  c #444444",
"z  c gray27",
"x  c #464646",
"c  c gray28",
"v  c #484848",
"b  c #494949",
"n  c gray29",
"m  c #4B4B4B",
"M  c #4C4C4C",
"N  c gray30",
"B  c #4E4E4E",
"V  c gray31",
"C  c #505050",
"Z  c #515151",
"A  c gray32",
"S  c #535353",
"D  c gray33",
"F  c #555555",
"G  c #565656",
"H  c gray34",
"J  c #585858",
"K  c gray35",
"L  c #5A5A5A",
"P  c #5B5B5B",
"I  c gray36",
"U  c #5D5D5D",
"Y  c gray37",
"T  c #606060",
"R  c gray38",
"E  c #626262",
"W  c gray39",
"Q  c #646464",
"!  c #656565",
"~  c gray40",
"^  c #676767",
"/  c #686868",
"(  c DimGray",
")  c #6A6A6A",
"_  c gray42",
"`  c #6C6C6C",
"'  c #6D6D6D",
"]  c gray43",
"[  c #6F6F6F",
"{  c gray44",
"}  c #717171",
"|  c #727272",
" . c gray45",
".. c #747474",
"X. c gray46",
"o. c #767676",
"O. c #777777",
"+. c gray47",
"@. c #797979",
"#. c gray48",
"$. c #7B7B7B",
"%. c #7C7C7C",
"&. c gray49",
"*. c #7E7E7E",
"=. c gray50",
"-. c #808080",
";. c #818181",
":. c gray51",
">. c #848484",
",. c #868686",
"<. c gray53",
"1. c #888888",
"2. c #898989",
"3. c gray54",
"4. c #8B8B8B",
"5. c gray55",
"6. c #8D8D8D",
"7. c #8E8E8E",
"8. c gray56",
"9. c #909090",
"0. c gray57",
"q. c #929292",
"w. c #939393",
"e. c gray58",
"r. c #959595",
"t. c gray59",
"y. c #979797",
"u. c #989898",
"i. c gray60",
"p. c #9A9A9A",
"a. c #9B9B9B",
"s. c gray61",
"d. c #9D9D9D",
"f. c gray62",
"g. c #9F9F9F",
"h. c #A0A0A0",
"j. c gray63",
"k. c #A2A2A2",
"l. c gray64",
"z. c #A4A4A4",
"x. c #A5A5A5",
"c. c gray65",
"v. c #A7A7A7",
"b. c gray66",
"n. c #A9A9A9",
"m. c #AAAAAA",
"M. c gray67",
"N. c #ACACAC",
"B. c gray68",
"V. c #AEAEAE",
"C. c #AFAFAF",
"Z. c gray69",
"A. c #B1B1B1",
"S. c #B2B2B2",
"D. c gray70",
"F. c #B4B4B4",
"G. c gray71",
"H. c #B6B6B6",
"J. c #B7B7B7",
"K. c gray72",
"L. c #B9B9B9",
"P. c gray73",
"I. c #BBBBBB",
"U. c #BCBCBC",
"Y. c gray74",
"T. c gray",
"R. c gray75",
"E. c #C1C1C1",
"W. c gray76",
"Q. c #C3C3C3",
"!. c gray77",
"~. c #C5C5C5",
"^. c #C6C6C6",
"/. c gray78",
"(. c #C8C8C8",
"). c gray79",
"_. c #CACACA",
"`. c #CBCBCB",
"'. c gray80",
"]. c #CDCDCD",
"[. c #CECECE",
"{. c gray81",
"}. c #D0D0D0",
"|. c gray82",
" X c #D2D2D2",
".X c LightGray",
"XX c gray83",
"oX c #D5D5D5",
"OX c gray84",
"+X c #D7D7D7",
"@X c #D8D8D8",
"#X c gray85",
"$X c #DADADA",
"%X c gray86",
"&X c gainsboro",
"*X c #DDDDDD",
"=X c gray87",
"-X c #DFDFDF",
";X c gray88",
":X c #E1E1E1",
">X c #E2E2E2",
",X c gray89",
"<X c #E4E4E4",
"1X c gray90",
"2X c #E6E6E6",
"3X c #E7E7E7",
"4X c gray91",
"5X c #E9E9E9",
"6X c #EAEAEA",
"7X c gray92",
"8X c #ECECEC",
"9X c gray93",
"0X c #EEEEEE",
"qX c #EFEFEF",
"wX c gray94",
"eX c #F1F1F1",
"rX c gray95",
"tX c #F3F3F3",
"yX c #F4F4F4",
"uX c gray96",
"iX c #F6F6F6",
"pX c gray97",
"aX c #F8F8F8",
"sX c #F9F9F9",
"dX c gray98",
"fX c #FBFBFB",
"gX c gray99",
"hX c #FDFDFD",
"jX c #FEFEFE",
"kX c gray100",
"lX c None",
/* pixels */
"lXlXlXlXlXlXlXlXlXlXlXlXlXlXlXlXlXlXlXlXlXlXlXlXlXlXlXlXlXlXlXlXlX                            lXlXlXlXlXlXlXlXlXlXlXlXlXlXlXlXlXlXlXlXlXlXlXlXlXlXlXlXlXlXlXlXlX",
"lXlXlXlXlXlXlXlXlXlXlXlXlXlXlXlXlXlXlXlXlXlXlXlXlXlXlXlXlX      + % 9 x U [ @.*.*.@.[ U x 9 % +       lXlXlXlXlXlXlXlXlXlXlXlXlXlXlXlXlXlXlXlXlXlXlXlXlXlXlXlXlX",
"lXlXlXlXlXlXlXlXlXlXlXlXlXlXlXlXlXlXlXlXlXlXlXlXlXlX    + 3 H 4.I.@X0XpXkXkXkXkXkXkXkXkXfX0XoXI.5.J 3 o     lXlXlXlXlXlXlXlXlXlXlXlXlXlXlXlXlXlXlXlXlXlXlXlXlXlX",
"lXlXlXlXlXlXlXlXlXlXlXlXlXlXlXlXlXlXlXlXlXlXlXlX  o 3 { H.1XfXkXkXkXkXkXkXkXkXkXkXkXkXkXkXkXkXkXkXfX1XH.[ 3 o   lXlXlXlXlXlXlXlXlXlXlXlXlXlXlXlXlXlXlXlXlXlXlXlX",
"lXlXlXlXlXlXlXlXlXlXlXlXlXlXlXlXlXlXlXlXlXlX  # B x.1XkXkXkXkXkXkXkXkXkXkXkXkXkXkXkXkXkXkXkXkXkXkXkXkXkXkX1Xx.m #   lXlXlXlXlXlXlXlXlXlXlXlXlXlXlXlXlXlXlXlXlXlX",
"lXlXlXlXlXlXlXlXlXlXlXlXlXlXlXlXlXlXlXlX  # H I.pXkXkXkXkXkXkXkXkXkXkXkXkXkXkXkXkXkXkXkXkXkXkXkXkXkXkXkXkXkXkXpXI.H #   lXlXlXlXlXlXlXlXlXlXlXlXlXlXlXlXlXlXlXlX",
"lXlXlXlXlXlXlXlXlXlXlXlXlXlXlXlXlXlX  o x H.pXkXkXkXkXkXkXkXkXkXkXkXkXkXkXkXkXkXkXkXkXkXkXkXkXkXkXkXkXkXkXkXkXkXkXpXH.x o   lXlXlXlXlXlXlXlXlXlXlXlXlXlXlXlXlXlX",
"lXlXlXlXlXlXlXlXlXlXlXlXlXlXlXlXlX  = q.0XkXkXkXkXkXkXkXkXkXkXkXkXkXkXkXkXkXkXkXkXkXkXkXkXkXkXkXkXkXkXkXkXkXkXkXkXkXkX0Xq.=   lXlXlXlXlXlXlXlXlXlXlXlXlXlXlXlXlX",
"lXlXlXlXlXlXlXlXlXlXlXlXlXlXlX    Z }.kXkXkXkXkXkXkXkXkXkXkXkXkXkXkXkXkXkXkXkXkXkXkXkXkXkXkXkXkXkXkXkXkXkXkXkXwXkXkXkXkXkX].B o   lXlXlXlXlXlXlXlXlXlXlXlXlXlXlX",
"lXlXlXlXlXlXlXlXlXlXlXlXlXlX  # ;.0XkXkXkXkXkXkXkXkXkXkXkXkXkXkXkXkXkXkXkXkXkXkXkXkXkXkXkXkXkXkXkXkXkXkXkX0Xl._.kXkXkXkXkXkXwX*.#   lXlXlXlXlXlXlXlXlXlXlXlXlXlX",
"lXlXlXlXlXlXlXlXlXlXlXlXlX  & x.fXkXkXkXkXkXkXkXkXkXkXkXkXkXkXkXkXkXkXkXkXkXkXkXkXkXkXkXkXkXkXkXkXkXkXkX1X;.n.fXkXkXkXkXkXkXkXfXx.&   lXlXlXlXlXlXlXlXlXlXlXlXlX",
"lXlXlXlXlXlXlXlXlXlXlXlX  , I.kXkXkXkXkXkXkXkXkXkXkXkXkXkXkXkXkXkXkXkXkXkXkXkXkXkXkXkXkXkXkXkXkXkXkXkX,X{ f.fXkXkXkXkXkXkXkXkXkXkXI.,   lXlXlXlXlXlXlXlXlXlXlXlX",
"lXlXlXlXlXlXlXlXlXlXlX  3 ~.kXkXkXkXkXkXkXkXkXkXkXkXkXkXkXkXkXkXkXkXkXkXkXkXkXkXkXkXkXkXkXkXkXkXkXkX@XT T wXkXkXkXkXkXkXkXkXkXkXkXkX~.3   lXlXlXlXlXlXlXlXlXlXlX",
"lXlXlXlXlXlXlXlXlXlX  , ~.kXkXkXkXkXkXkXkXkXkXkXkXkXkXkXkXkXkXkXkXkXkXkXkXkXkXkXkXkXkXkXkXkXkXkXkXoXU 9 l.kXkXkXkXkXkXkXkXkXkXkXkXkXkX~.3   lXlXlXlXlXlXlXlXlXlX",
"lXlXlXlXlXlXlXlXlX  & I.kXkXkXkXkXkXkXkXkXkXkXkXkXkXkXkXkXkXkXkXkXkXkXkXkXkXkXkXkXkXkXkXkXkXkXkX0X[ 9 a ].kXkXkXkXkXkXkXkXkXkXkXkXkXkXkXI.%   lXlXlXlXlXlXlXlXlX",
"lXlXlXlXlXlXlXlX  # x.kXkXkXkXkXkXkXkXkXkXkXkXkXkXkXkXkXkXkXkXkXkXkXkXkXkXkXkXkXkXkXkXkXkXkXkXkXn.i 9 m 1XkXkXkXkXkXkXkXkXkXkXkXkXkXkXkXkXx.#   lXlXlXlXlXlXlXlX",
"lXlXlXlXlXlXlXlXo *.fXkXkXkXkXkXkXkXkXkXkXkXkXkXkXkXkXkXkXkXkXkXkXkXkXkXkXkXkXkXkXkXkXkXkXkXkXwX/ 9 9 U wXkXkXkXkXkXkXkXkXkXkXkXkXkXkXkXkXfX*.o lXlXlXlXlXlXlXlX",
"lXlXlXlXlXlXlX  B 0XkXkXkXkXkXkXkXkXkXkXkXkXkXkXkXkXkXkXkXkXkXkXkXkXkXkXkXkXkXkXkXkXkXkXkXkXkX-XB r 9 / fXkXkXkXkXkXkXkXkXkXkXkXkXkXkXkXkXkX0XZ   lXlXlXlXlXlXlX",
"lXlXlXlXlXlX  = ].kXkXkXkXkXkXkXkXkXkXkXkXkXkXkXkXkXkXkXkXkXkXkXkXkXkXkXkXkXkXkXkXkXkXkXkXkXkX~.a r 9 o.fXkXkXkXkXkXkXkXkXkXkXkXkXkXkXkXkXkXkX].=   lXlXlXlXlXlX",
"lXlXlXlXlXlXo q.kXkXkXkXkXkXkXkXkXkXkXkXkXkXkXkXkXkXkXkXkXkXkXkXkXkXkXkXkXkXkXkXkXkXkXkXkXkXkXH.a i 9 @.fXkXkXkXkXkXkXkXkXkXkXkXkXkXkXkXkXkXkXkXq.o lXlXlXlXlXlX",
"lXlXlXlXlX  x 0XkXkXkXkXkXkXkXkXkXkXkXkXkXkXkXkXkXkXkXkXkXkXkXkXkXkXkXkXkXkXkXkXkXkXkXkXkXkXkXn.a i 9 *.kXkXkXkXkXkXkXkXkXkXkXkXkXkXkXkXkXkXkXkX0Xx   lXlXlXlXlX",
"lXlXlXlXlX# H.kXkXkXkXkXkXkXkXkXkXkXkXkXkXkXkXkXkXkXkXkXkXkXkXkXkXkXkXkXkXkXkXkXkXkXkXkXkXkXkXn.a a r *.kXkXkXkXkXkXkXkXkXkXkXkXkXkXkXkXkXkXkXkXkXH.# lXlXlXlXlX",
"lXlXlXlX  H pXkXkXkXkXkXkXkXkXkXkXkXkXkXkXkXkXkXkXkXkXkXkXkXkXkXkXkXkXkXkXkXkXkXkXkXkXkXkXkXkXx.a a i @.fXkXkXkXkXkXkXkXkXkXkXkXkXkXkXkXkXkXkXkXkXpXH   lXlXlXlX",
"lXlXlXlX# I.kXkXkXkXkXkXkXkXkXkXkXkXkXkXkXkXkXkXkXkXkXkXkXkXkXkXkXkXkXkXkXkXkXkXkXkXkXkXkXkXkXn.h a r *.fXkXkXkXkXkXkXkXkXkXkXkXkXkXkXkXkXkXkXkXkXkXI.# lXlXlXlX",
"lXlXlX  m pXkXkXkXkXkXkXkXkXkXkXkXkXkXkXkXkXkXkXkXkXkXkXkXkXkXkXkXkXkXkXkXkXkXkXkXkXkXkXkXkXkXV.h a i *.fXkXkXkXkXkXkXkXkXkXkXkXkXkXkXkXkXkXkXkXkXkXpXm   lXlXlX",
"lXlXlXo x.kXkXkXkXkXkXkXkXkXkXkXkXkXkXkXkXkXkXkXkXkXkXkXkXkXkXkXkXkXkXkXkXkXkXkXkXkXkXkXkXkXkXI.h a i *.fXkXkXkXkXkXkXkXkXkXkXkXkXkXkXkXkXkXkXkXkXkXkXx.o lXlXlX",
"lXlX  4 1XkXkXkXkXkXkXkXkXkXkXkXkXkXkXkXkXkXkXkXkXkXkXkXkXkXkXkXkXkXkXkXkXkXkXkXkXkXkXkXkXkXkXE.m a a ;.kXkXkXkXkXkXkXkXkXkXkXkXkXkXkXkXkXkXkXkXkXkXkX1X4   lXlX",
"lXlX  [ kXkXkXkXkXkXkXkXkXkXkXkXkXkXkXkXkXkXkXkXkXkXkXkXkXkXkXkXkXkXkXkXkXkXkXkXkXkXkXkXkXkXkX].B h h >.kXkXkXkXkXkXkXkXkXkXkXkXkXkXkXkXkXkXkXkXkXkXkXkX[   lXlX",
"lXlXo H.kXkXkXkXkXkXkXkXkXkXkXkXkXkXkXkXkXkXkXkX0X0XkXkXkXkXkXkXkXkXkXkXkXkXkXkXkXkXkXkX_.u._.oXH h h 4.kXkXkXkXkXkXkXkXkXkXE.].kXkXkXkXkXkXkXkXkXkXkXkXH.+ lXlX",
"lX  3 ,XkXkXkXkXkXkXkXkXkXkXkXkXkXkXkXkXkXkXkXoXo.5.fXkXkXkXkXkXkXkXkXkXkXkXkXkXkXkXkX-Xx , x V.U h a 4.kXkXkXkXkXkXkXkXfXx.r U wX,X5.Z.pXkXkXkXkXkXkXkX1X,   lX",
"lX  J kXkXkXkXkXkXkXkXkXkXkXkXkXkXkXkXkXkXpXx.m r h ~.kXkXkXkXkXkXkXkXkXkXkXpX_.1XkXkXoXa , a V.U x x 5.kXkX0XI.].kXkXfXl.9 , i U.~ 4 i q.wXkXkXfXkXkXkXkXH   lX",
"lX  5.kXkXkXkXkXkXkXkXkXkXkXkXkXkXkXkXkX1X;.r r i r / 7XkXkXkXkXkXkXkXkXkX7X*.a ;.0XkXfXZ.o.H.}.T m m q.kX7Xo.9 m oXkXl.9 , , 3 B 9 9 r a @.E.Z.oXkXkXkXkX5.  lX",
"lX+ H.kXkXkXkXkXkXkXkXkXkXkXkXkXkXkXkX].T B x i a h a q.pXkXkXkXkXkXkXkX,X/ 4 i a 5.0XfXkXkXkX}.T m m q.7Xo.4 9 4 x.~.J 3 , , , 3 4 9 a x a m n.fXkXkXkXkXI.+ lX",
"  % @XkXkXkXkXkXkXkXkXkXkXkXkXkXkXkX~.Z 9 x.x.a a a i x 5.wXkXkXkXkXkX-X{ m r i h x u.fXkXkXkXoXT B m @.{ 4 4 4 3 >.0X_.r , , , i 4 i a x B H.fXkXkXkXkXkXoX%   ",
"  9 0XkXkXkXkXkXkXkXkXkXkXkXkXkXkX1XJ 9 a ].wX{ i i a { E.fXkXkXkXkXoXT U ].[ a h a Z ~.fXkXkXoX~ B B ~ 4.i 3 4 4 o.kX@Xi , = i Z.[ a h H I.kXkXkXkXkXkXkX0X9   ",
"  m pXkXkXkXkXkXkXkXkXkXkXkXkXkXkXx.9 r x oXkX@XU a 4.7XkXkXkXkXkX}.J r o.fX7X@.i r r B V.kXkXoXT m H t.fX[ 3 9 9 ~ fX@Xi , , a ,X0Xl.>.].kXkXkXkXkXkXkXkXfXx   ",
"  U kXkXkXkXkXkXkXkXkXkXkXkXkXkXfX{ r 9 a ~.kXkX-XI.wXwXwXkXkXkXfXo.9 9 ;.kXkX-XZ 4 r r 4.kXkXoXT B Z t.kXq.9 r r U pX@Xi , , x 7XkXkXfXkXkXkXkXkXkXkXkXkXkXU   ",
"  [ kXkXkXkXkXkXkXkXkXkXkXkXkXkXpX~ 4 9 4 5.kXkXkXkX_.~ ~ ].kXkX-Xm r r 5.kXkXkX;.4 r i q.kXkX@X~ H B q.kXx.r a i T pX}.r 3 , B wXkXkXkXkXkXkXkXkXkXkXkXkXkX[   ",
"  @.kXkXkXkXkXkXkXkXkXkXkXkXkXkXpX[ 9 9 4 m }.pX}.5.h 9 9 B }.kX].a i r 4.kXkXkXq.r h h f.kXkXoXT J H q.kXU.a a i ~ pX~.9 3 , J wXkXkXkXkXkXkXkXkXkXkXkXkXkX@.  ",
"  *.kXkXkXkXkXkXkXkXkXkXkXkXkXkXkXq.9 9 9 r Z T x 9 9 9 9 9 / wX~.a r 9 @.fXkXkXu.r a x n.kXkXE.B Z B q.kX_.x a a / fXU.9 4 3 T pXkXkXkXkXkXkXkXkXkXkXkXkXkX*.  ",
"  *.kXkXkXkXkXkXkXpX7X,X,X0XkXkXkX].h r i a a H q.4.i 9 9 r i I.~.i r r T wXkXkXl.r x m V.kXkX_.B H Z q.kXoXm h h o.fXI.9 4 3 / fXkXkXkXkXkXkXkXkXkXkXkXkXkX*.  ",
"  @.kXkXkXkXkXwXI.q.@.o.@.4.x.oXfXfX4.a x J t.-XkXfX5.r 9 9 9 4.E.a r i B ].kXkXl.h Z Z n.kXkXoXJ H Z t.kX@XB x m 4.kXI.r 9 4 T pXkXkXkXkXkXkXkXkXkXkXkXkXkX@.  ",
"  [ kXkX,XH.@X4.T T T / [ [ [ o.l.,X0XV.I.1XkXkXkXkX0X~ 9 r 9 *.}.h i a x @.1XkXl.h m H 4.pXkX-XJ Z B q.kX-XH Z H H.kXI.r r 4 x -XkX7XfXkXkXkXkXkXkXkXkXkXkX[   ",
"  U kXkX7Xx.o.U ~ T U J ~ [ [ / / *.I.pXkXkXkXkXkXkXkXV.i r r 5.0XU i a m Z { H.>.i x H H n.pX@XJ J J q.kX@XU J >.wXkXU.i 9 9 9 { q.l.fXkXkXkXkXkXkXkXkXkXkXU   ",
"  m fXkXpXf.f.].@X@X_.l.{ J T [ [ [ @.l.@XfXkXkXkXkXkX].x a x E.kX5.a h B B Z Z B a m U / { n._.U ~ / f.kXoX~ @.-XkXkX].a 9 r r i { 1XkXkXkXkXkXkXkXkXkXkXpXx   ",
"  4 7XkXx.n.kXkXfXkXkXkX,Xu.T U / o.*.;.4.V.@XfXkXkXkX].m x u.fXkX@XJ a h m m o.H.m i Z { >.@X,XT ~ o.V.kXU.{ ].kXkXkX1XZ 9 i U Z.wXkXkXkXkXkXkXkXkXkXkXkX0X9   ",
"  % @X].H ].kXkX1X-Xn.x.fXfX}.4.T [ o.o.o.o.@.u._.,X0Xx.H n.pXkXkXkX_.{ Z H 4.7XfXu.H H { H.kX@X/ { / Z.0Xu.}.kXkXkXkXkXt.i ~ @XkXkXkXkXkXkXkXkXkXkXkXkXkX@X%   ",
"lX+ Z.t.V.wXkXkXkX~.a { pXkXkXpXE.*.T T / / / T J U U o.].kXkXkXkXkXkXwX}.oXpXkXkXfX_.Z.,XkXkX,X*.*.@.n.~.-XkXkXkXkXkXkXwXI.,XkXkXkXkXkXkXkXkXkXkXkXkXkXkXI.+ lX",
"lX  >.0XkXkXkXkXkXwX~.7XkXkXkXkXkX0XZ.o.H Z Z Z B H 5.,XkXkXkXkXkXkXkXkXkXkXkXkXkXkXkXkXkXkXkX-Xo.@.@.I.pXkXkXkXkXkXkXkXkXkXkXkXkXkXkXkXkXkXkXkXkXkXkXkXkX4.  lX",
"lX  J kXkXkXkXkXkXkXkXkXkXkXkXkXkXkXkX0XI.>.o.@.q.].pXkXkXkXkXkXkXkXkXkXkXkXkXkXkXkXkXkXkXkXkX@X/ o.[ V.kXkXkXkXkXkXkXkXkXkXkXkXkXkXkXkXkXkXkXkXkXkXkXkXkXJ   lX",
"lX  3 1XkXkXkXkXkXkXkXkXkXkXkXkXkXkXkXkXkXfXpXpXkXkXkXkXkXkXkXkXkXkXkXkXkXkXkXkXkXkXkXkXkXkXkX}./ @.{ n.kXkXkXkXkXkXkXkXkXkXkXkXkXkXkXkXkXkXkXkXkXkXkXkX1X,   lX",
"lXlX+ H.kXkXkXkXkXkXkXkXkXkXkXkXkXkXkXkXkXkXkXkXkXkXkXkXkXkXkXkXkXkXkXkXkXkXkXkXkXkXkXkXkXkXkX}.H [ { V.kXkXkXkXkXkXkXkXkXkXkXkXkXkXkXkXkXkXkXkXkXkXkXkXH.+ lXlX",
"lXlX  [ kXkXkXkXkXkXkXkXkXkXkXkXkXkXkXkXkXkXkXkXkXkXkXkXkXkXkXkXkXkXkXkXkXkXkXkXkXkXkXkXkXkXkX}.H / o.l.kXkXkXkXkXkXkXkXkXkXkXkXkXkXkXkXkXkXkXkXkXkXkXkX[   lXlX",
"lXlX  4 1XkXkXkXkXkXkXkXkXkXkXkXkXkXkXkXkXkXkXkXkXkXkXkXkXkXkXkXkXkXkXkXkXkXkXkXkXkXkXkXkXkXkX}.Z [ 5.n.kXkXkXkXkXkXkXkXkXkXkXkXkXkXkXkXkXkXkXkXkXkXkX1X4   lXlX",
"lXlXlXo x.kXkXkXkXkXkXkXkXkXkXkXkXkXkXkXkXkXkXkXkXkXkXkXkXkXkXkXkXkXkXkXkXkXkXkXkXkXkXkXkXkXkXoXH / *.u.kXkXkXkXkXkXkXkXkXkXkXkXkXkXkXkXkXkXkXkXkXkXkXl.o lXlXlX",
"lXlXlX  m pXkXkXkXkXkXkXkXkXkXkXkXkXkXkXkXkXkXkXkXkXkXkXkXkXkXkXkXkXkXkXkXkXkXkXkXkXkXkXkXkXkXoXH ~ @.4.pXkXkXkXkXkXkXkXkXkXkXkXkXkXkXkXkXkXkXkXkXkXpXm   lXlXlX",
"lXlXlXlX# I.kXkXkXkXkXkXkXkXkXkXkXkXkXkXkXkXkXkXkXkXkXkXkXkXkXkXkXkXkXkXkXkXkXkXkXkXkXkXkXkXkX-XH U J T pXkXkXkXkXkXkXkXkXkXkXkXkXkXkXkXkXkXkXkXkXkXI.# lXlXlXlX",
"lXlXlXlX  H pXkXkXkXkXkXkXkXkXkXkXkXkXkXkXkXkXkXkXkXkXkXkXkXkXkXkXkXkXkXkXkXkXkXkXkXkXkXkXkXkX1XJ a 4 m 7XkXkXkXkXkXkXkXkXkXkXkXkXkXkXkXkXkXkXkXkXpXH   lXlXlXlX",
"lXlXlXlXlX# H.kXkXkXkXkXkXkXkXkXkXkXkXkXkXkXkXkXkXkXkXkXkXkXkXkXkXkXkXkXkXkXkXkXkXkXkXkXkXkXkX-XB , , H wXkXkXkXkXkXkXkXkXkXkXkXkXkXkXkXkXkXkXkXkXH.# lXlXlXlXlX",
"lXlXlXlXlX  x 0XkXkXkXkXkXkXkXkXkXkXkXkXkXkXkXkXkXkXkXkXkXkXkXkXkXkXkXkXkXkXkXkXkXkXkXkXkXkXkX~.9 = , m 7XkXkXkXkX0X_.1XkXkXkXkXkXkXkXkXkXkXkXkX0Xx   lXlXlXlXlX",
"lXlXlXlXlXlXo t.kXkXkXkXkXkXkXkXkXkXkXkXkXkXkXkXkXkXkXkXkXkXkXkXkXkXkXkXkXkXkXkXkXkXkXkXkXkXkX~.9 , , i @XkXkXkXfX@.3 Z ,XkXkXkXkXkXkXkXkXkXkXkXq.o lXlXlXlXlXlX",
"lXlXlXlXlXlX  = ].kXkXkXkXkXkXkXkXkXkXkXkXkXkXkXkXkXkXkXkXkXkXkXkXkXkXkXkXkXkXkXkXkXkXkXkXkXkXI.4 3 3 4 U.kXkXkXwXZ % 3 _.kXkXkXkXkXkXkXkXkXkX].&   lXlXlXlXlXlX",
"lXlXlXlXlXlXlX  B 0XkXkXkXkXkXkXkXkXkXkXkXkXkXkXkXkXkXkXkXkXkXkXkXkXkXkXkXkXkXkXkXkXkXkXkXkXkX_.r , 3 3 u.kXkXkXkX_.o.u.pXkXkXkXkXkXkXkXkXkX0XZ   lXlXlXlXlXlXlX",
"lXlXlXlXlXlXlXlX  ;.fXkXkXkXkXkXkXkXkXkXkXkXkXkXkXkXkXkXkXkXkXkXkXkXkXkXkXkXkXkXkXkXkXkXkXkXkXwXU 3 4 4 [ pXkXkXkXkXfXkXkXkXkXkXkXkXkXkXkXfX;.  lXlXlXlXlXlXlXlX",
"lXlXlXlXlXlXlXlX  # x.kXkXkXkXkXkXkXkXkXkXkXkXkXkXkXkXkXkXkXkXkXkXkXkXkXkXkXkXkXkXkXkXkXkXkXkXkX>.3 4 r a ~.kXkXkXkXkXkXkXkXkXkXkXkXkXkXkXl.#   lXlXlXlXlXlXlXlX",
"lXlXlXlXlXlXlXlXlX  & I.kXkXkXkXkXkXkXkXkXkXkXkXkXkXkXkXkXkXkXkXkXkXkXkXkXkXkXkXkXkXkXkXkXkXkXkXZ.9 r r r T oXkXkXfXkXkXkXkXkXkXkXkXkXkXI.&   lXlXlXlXlXlXlXlXlX",
"lXlXlXlXlXlXlXlXlXlX  3 ~.kXkXkXkXkXkXkXkXkXkXkXkXkXkXkXkXkXkXkXkXkXkXkXkXkXkXkXkXkXkXkXkXkXkXkX-Xm r i a h J q.n.oXpXwXkXkXkXkXkXkXkX~.,   lXlXlXlXlXlXlXlXlXlX",
"lXlXlXlXlXlXlXlXlXlXlX  3 ~.kXkXkXkXkXkXkXkXkXkXkXkXkXkXkXkXkXkXkXkXkXkXkXkXkXkXkXkXkXkXkXkXkXkXfX5.r h m m m [ ~.kX,X@XkXkXkXkXkXkX~.3   lXlXlXlXlXlXlXlXlXlXlX",
"lXlXlXlXlXlXlXlXlXlXlXlX  , I.kXkXkXkXkXkXkXkXkXkXkXkXkXkXkXkXkXkXkXkXkXkXkXkXkXkXkXkXkXkXkXkXkXkX1X@.m m J u.0XkXkXkXkXkXkXkXkXkXI.,   lXlXlXlXlXlXlXlXlXlXlXlX",
"lXlXlXlXlXlXlXlXlXlXlXlXlX  & x.fXkXkXkXkXkXkXkXkXkXkXkXkXkXkXkXkXkXkXkXkXkXkXkXkXkXkXkXkXkXkXkXkXkX0Xn.f.}.kXkXkXkXkXkXkXkXkXkXx.&   lXlXlXlXlXlXlXlXlXlXlXlXlX",
"lXlXlXlXlXlXlXlXlXlXlXlXlXlX  # *.0XkXkXkXkXkXkXkXkXkXkXkXkXkXkXkXkXkXkXkXkXkXkXkXkXkXkXkXkXkXkXkXkXkXkXkXkXkXkXkXkXkXkXkXkX0X*.#   lXlXlXlXlXlXlXlXlXlXlXlXlXlX",
"lXlXlXlXlXlXlXlXlXlXlXlXlXlXlX  o B ].kXkXkXkXkXkXkXkXkXkXkXkXkXkXkXkXkXkXkXkXkXkXkXkXkXkXkXkXkXkXkXkXkXkXkXkXkXkXkXkXkXkX].B o   lXlXlXlXlXlXlXlXlXlXlXlXlXlXlX",
"lXlXlXlXlXlXlXlXlXlXlXlXlXlXlXlXlX  = q.0XkXkXkXkXkXkXkXkXkXkXkXkXkXkXkXkXkXkXkXkXkXkXkXkXkXkXkXkXkXkXkXkXkXkXkXkXkXkX0Xq.=   lXlXlXlXlXlXlXlXlXlXlXlXlXlXlXlXlX",
"lXlXlXlXlXlXlXlXlXlXlXlXlXlXlXlXlXlX  o x H.pXkXkXkXkXkXkXkXkXkXkXkXkXkXkXkXkXkXkXkXkXkXkXkXkXkXkXkXkXkXkXkXkXkXkXpXH.x o   lXlXlXlXlXlXlXlXlXlXlXlXlXlXlXlXlXlX",
"lXlXlXlXlXlXlXlXlXlXlXlXlXlXlXlXlXlXlXlX  # H I.pXkXkXkXkXkXkXkXkXkXkXkXkXkXkXkXkXkXkXkXkXkXkXkXkXkXkXkXkXkXkXpXI.H #   lXlXlXlXlXlXlXlXlXlXlXlXlXlXlXlXlXlXlXlX",
"lXlXlXlXlXlXlXlXlXlXlXlXlXlXlXlXlXlXlXlXlXlX  # m x.1XkXkXkXkXkXkXkXkXkXkXkXkXkXkXkXkXkXkXkXkXkXkXkXkXkXkX1Xl.B #   lXlXlXlXlXlXlXlXlXlXlXlXlXlXlXlXlXlXlXlXlXlX",
"lXlXlXlXlXlXlXlXlXlXlXlXlXlXlXlXlXlXlXlXlXlXlXlX  o 3 [ H.1XfXkXkXkXkXkXkXkXkXkXkXkXkXkXkXkXkXkXkXfX,XH.[ 3 o   lXlXlXlXlXlXlXlXlXlXlXlXlXlXlXlXlXlXlXlXlXlXlXlX",
"lXlXlXlXlXlXlXlXlXlXlXlXlXlXlXlXlXlXlXlXlXlXlXlXlXlX    + , J 5.I.@X0XpXkXkXkXkXkXkXkXkXfX0XoXI.5.J 3 +     lXlXlXlXlXlXlXlXlXlXlXlXlXlXlXlXlXlXlXlXlXlXlXlXlXlX",
"lXlXlXlXlXlXlXlXlXlXlXlXlXlXlXlXlXlXlXlXlXlXlXlXlXlXlXlXlX      + % 4 m U [ @.*.*.@.[ J m 4 % +       lXlXlXlXlXlXlXlXlXlXlXlXlXlXlXlXlXlXlXlXlXlXlXlXlXlXlXlXlX",
"lXlXlXlXlXlXlXlXlXlXlXlXlXlXlXlXlXlXlXlXlXlXlXlXlXlXlXlXlXlXlXlXlX                            lXlXlXlXlXlXlXlXlXlXlXlXlXlXlXlXlXlXlXlXlXlXlXlXlXlXlXlXlXlXlXlXlX"
};
