/* XPM */
static char *_3f16e8d969b4204ea23400769498b8e[] = {
/* columns rows colors chars-per-pixel */
"32 32 157 2 ",
"   c #272727",
".  c #282828",
"X  c #323232",
"o  c gray20",
"O  c #353535",
"+  c #373737",
"@  c #393939",
"#  c gray23",
"$  c gray24",
"%  c #3F3F3F",
"&  c gray25",
"*  c #414141",
"=  c gray26",
"-  c #434343",
";  c #444444",
":  c #464646",
">  c gray28",
",  c #484848",
"<  c #494949",
"1  c #4B4B4B",
"2  c #4C4C4C",
"3  c gray30",
"4  c #4E4E4E",
"5  c gray31",
"6  c #515151",
"7  c gray32",
"8  c #535353",
"9  c gray33",
"0  c #555555",
"q  c #565656",
"w  c gray34",
"e  c #585858",
"r  c gray35",
"t  c gray36",
"y  c #5D5D5D",
"u  c gray37",
"i  c gray38",
"p  c #646464",
"a  c #686868",
"s  c DimGray",
"d  c #6A6A6A",
"f  c gray42",
"g  c #6C6C6C",
"h  c #6D6D6D",
"j  c gray43",
"k  c #6F6F6F",
"l  c gray44",
"z  c #717171",
"x  c #727272",
"c  c gray45",
"v  c #747474",
"b  c gray46",
"n  c #767676",
"m  c #777777",
"M  c gray47",
"N  c gray48",
"B  c #7C7C7C",
"V  c gray49",
"C  c #7E7E7E",
"Z  c gray50",
"A  c #808080",
"S  c #818181",
"D  c gray52",
"F  c gray53",
"G  c #898989",
"H  c gray54",
"J  c #8B8B8B",
"K  c gray55",
"L  c #8D8D8D",
"P  c #8E8E8E",
"I  c gray57",
"U  c #929292",
"Y  c #939393",
"T  c gray59",
"R  c #979797",
"E  c gray60",
"W  c #9A9A9A",
"Q  c #9B9B9B",
"!  c #9D9D9D",
"~  c #A0A0A0",
"^  c gray63",
"/  c #A4A4A4",
"(  c #A5A5A5",
")  c gray65",
"_  c #A7A7A7",
"`  c #AAAAAA",
"'  c gray67",
"]  c #ACACAC",
"[  c gray68",
"{  c #AEAEAE",
"}  c #AFAFAF",
"|  c gray69",
" . c #B1B1B1",
".. c #B2B2B2",
"X. c #B4B4B4",
"o. c #B6B6B6",
"O. c gray72",
"+. c gray73",
"@. c #BBBBBB",
"#. c gray74",
"$. c gray",
"%. c gray75",
"&. c #C0C0C0",
"*. c #C3C3C3",
"=. c #C5C5C5",
"-. c #C6C6C6",
";. c #C8C8C8",
":. c gray79",
">. c gray80",
",. c #CDCDCD",
"<. c #CECECE",
"1. c gray81",
"2. c #D0D0D0",
"3. c #D2D2D2",
"4. c LightGray",
"5. c gray83",
"6. c #D5D5D5",
"7. c gray84",
"8. c #D7D7D7",
"9. c gray85",
"0. c #DADADA",
"q. c gray86",
"w. c gainsboro",
"e. c gray87",
"r. c #DFDFDF",
"t. c gray88",
"y. c #E1E1E1",
"u. c gray89",
"i. c #E4E4E4",
"p. c gray90",
"a. c #E6E6E6",
"s. c #E7E7E7",
"d. c gray91",
"f. c #E9E9E9",
"g. c #EAEAEA",
"h. c gray92",
"j. c #ECECEC",
"k. c gray93",
"l. c #EEEEEE",
"z. c #EFEFEF",
"x. c gray94",
"c. c #F1F1F1",
"v. c gray95",
"b. c #F3F3F3",
"n. c #F4F4F4",
"m. c gray96",
"M. c #F6F6F6",
"N. c gray97",
"B. c #F8F8F8",
"V. c #F9F9F9",
"C. c gray98",
"Z. c #FBFBFB",
"A. c gray99",
"S. c #FDFDFD",
"D. c #FEFEFE",
"F. c gray100",
"G. c None",
/* pixels */
"G.G.G.G.G.G.G.G.G.G.G.G.o q d b b d q o G.G.G.G.G.G.G.G.G.G.G.G.",
"G.G.G.G.G.G.G.G.G.X b | r.x.Z.F.F.Z.x.9.| l o G.G.G.G.G.G.G.G.G.",
"G.G.G.G.G.G.G.  V 7.Z.F.F.F.F.F.F.F.F.F.F.F.3.V . G.G.G.G.G.G.G.",
"G.G.G.G.G.G.3 $.Z.F.F.F.F.F.F.F.F.F.F.F.F.f.M.Z.$.3 G.G.G.G.G.G.",
"G.G.G.G.G.p r.F.F.F.F.F.F.F.F.F.F.F.F.F.3.&.Z.F.F.r.p G.G.G.G.G.",
"G.G.G.G.p s.F.F.F.F.F.F.F.F.F.F.F.F.F.3.l s.F.F.F.F.s.p G.G.G.G.",
"G.G.G.3 r.F.F.F.F.F.F.F.F.F.F.F.F.F.F.N d Z.F.F.F.F.F.r.3 G.G.G.",
"G.G.  $.F.F.F.F.F.F.F.F.F.F.F.F.F.F.k.t b F.F.F.F.F.F.F.$.. G.G.",
"G.G.A F.F.F.F.F.F.F.F.F.F.F.F.F.F.F.f.q N F.F.F.F.F.F.F.F.V G.G.",
"G.o 3.F.F.F.F.F.F.F.F.F.F.F.F.F.F.F.f.q N F.F.F.F.F.F.F.F.3.X G.",
"G.b Z.F.F.F.F.F.F.F.F.F.F.F.F.F.F.F.x.u A F.F.F.F.F.F.F.F.F.b G.",
"G.| F.F.F.F.F.F.F.9.y.F.F.F.F.F.F.<.E i D F.F.F.3.&.9.x.F.F.| G.",
"o r.F.F.F.F.F.M.] 1 V M.F.F.x.Q :.:.U d G &.T <.1 : : N <.F.9.o ",
"8 x.F.F.F.F.F.T V i 1 :.F.k.Q q q 7.M.l g 8 = ] o = 1 i 7.F.x.q ",
"d Z.F.F.F.F.y.: T 7.] 9.F.G V 3.1 l k.b G N = O.% V 9.s.F.F.Z.d ",
"b F.F.F.F.F.r.= q ] g q =.t V M.i l k.l U E : | % P F.F.F.F.F.b ",
"b Z.k.$.~ | 9.G d | P X N t p f.l N f.g T _ t O.% P F.F.F.F.Z.b ",
"g f.' E D d N | f.F.f.8 G b : A u u $.N E ] E 7.% q :.F.F.F.Z.d ",
"q O.y.f.=.=.D l G o.=.U y.3.l Q ~ N :.D Q :.k.x.N ] M.F.F.F.x.q ",
"o :.F.x.9.F.x.O.V b ' x.F.F.M.Z.Z.M.x.P _ Z.F.F.M.F.F.F.F.F.9.o ",
"G.| F.F.F.F.F.F.M.x.F.F.F.F.F.F.F.F.M.V _ F.F.F.F.F.F.F.F.F.] G.",
"G.b F.F.F.F.F.F.F.F.F.F.F.F.F.F.F.F.x.V _ F.F.F.F.F.F.F.F.F.b G.",
"G.X 3.F.F.F.F.F.F.F.F.F.F.F.F.F.F.F.M.b D Z.F.F.F.F.F.F.F.7.X G.",
"G.G.V Z.F.F.F.F.F.F.F.F.F.F.F.F.F.F.x.t i Z.Z.y.Z.F.F.F.Z.A G.G.",
"G.G.. $.F.F.F.F.F.F.F.F.F.F.F.F.F.F.k.3 3 x.y.g s.F.F.F.$.  G.G.",
"G.G.G.3 r.F.F.F.F.F.F.F.F.F.F.F.F.F.Z.g @ <.F.s.Z.F.F.r.3 G.G.G.",
"G.G.G.G.p s.F.F.F.F.F.F.F.F.F.F.F.F.F._ o d <.M.F.F.s.p G.G.G.G.",
"G.G.G.G.G.p r.F.F.F.F.F.F.F.F.F.F.F.F.f.P T y.Z.F.r.i G.G.G.G.G.",
"G.G.G.G.G.G.3 $.F.F.F.F.F.F.F.F.F.F.F.F.Z.Z.F.F.$.3 G.G.G.G.G.G.",
"G.G.G.G.G.G.G.  V 7.Z.F.F.F.F.F.F.F.F.F.F.F.3.V   G.G.G.G.G.G.G.",
"G.G.G.G.G.G.G.G.G.o b | 9.x.F.F.F.Z.x.r.| b X G.G.G.G.G.G.G.G.G.",
"G.G.G.G.G.G.G.G.G.G.G.G.o 8 d b b d q X G.G.G.G.G.G.G.G.G.G.G.G."
};
