/* XPM */
static char *ced4648dc58c4bbeec6400a6d176f9ed[] = {
/* columns rows colors chars-per-pixel */
"80 80 249 2 ",
"   c #030303",
".  c #050B0B",
"X  c #0B0B0B",
"o  c #041313",
"O  c #0D1212",
"+  c #061B1B",
"@  c #0D1C1C",
"#  c #131313",
"$  c #181717",
"%  c #141C1C",
"&  c #1B1B1B",
"*  c #201F1F",
"=  c #052424",
"-  c #0A2626",
";  c #062C2C",
":  c #0E2C2C",
">  c #1A2424",
",  c #132929",
"<  c #1C2B2B",
"1  c #153434",
"2  c #1C3737",
"3  c #1B3F3F",
"4  c #242424",
"5  c #242929",
"6  c #2B2B2B",
"7  c #253535",
"8  c #2A3333",
"9  c #253B3B",
"0  c #293C3C",
"q  c #343434",
"w  c #333A3A",
"e  c #3C3C3C",
"r  c #403F3F",
"t  c #0E4141",
"y  c #114343",
"u  c #1A4545",
"i  c #164848",
"p  c #184D4D",
"a  c #065151",
"s  c #0E5656",
"d  c #065858",
"f  c #1A5252",
"g  c #135F5F",
"h  c #2D4343",
"j  c #214D4D",
"k  c #2B4C4C",
"l  c #314141",
"z  c #3C4343",
"x  c #374848",
"c  c #3E4A4A",
"v  c #2D5454",
"b  c #2E5D5D",
"n  c #365252",
"m  c #3D5353",
"M  c #375B5B",
"N  c #3C5C5C",
"B  c #0C6A6A",
"V  c #0D7272",
"C  c #0E7B7B",
"Z  c #117171",
"A  c #1C7A7A",
"S  c #256464",
"D  c #236C6C",
"F  c #286B6B",
"G  c #316464",
"H  c #3B6464",
"J  c #3E6D6D",
"K  c #257272",
"L  c #2E7B7B",
"P  c #377272",
"I  c #3C7272",
"U  c #357C7C",
"Y  c #3B7B7B",
"T  c #434444",
"R  c #484747",
"E  c #444B4B",
"W  c #4B4B4B",
"Q  c #504F4F",
"!  c #455353",
"~  c #4F5353",
"^  c #475B5B",
"/  c #4F5F5F",
"(  c #535353",
")  c #535B5B",
"_  c #5B5B5B",
"`  c #605F5F",
"'  c #476262",
"]  c #4C6565",
"[  c #416F6F",
"{  c #506464",
"}  c #5E6161",
"|  c #5B6C6C",
" . c #457373",
".. c #427B7B",
"X. c #567373",
"o. c #5B7272",
"O. c #527B7B",
"+. c #5A7C7C",
"@. c #646464",
"#. c #686767",
"$. c #636C6C",
"%. c #6C6C6C",
"&. c #637272",
"*. c #6B7373",
"=. c #667B7B",
"-. c #6B7F7F",
";. c #747474",
":. c #767A7A",
">. c #7B7B7B",
",. c #1F8181",
"<. c #1C8C8C",
"1. c #268585",
"2. c #358282",
"3. c #3D8383",
"4. c #378888",
"5. c #3A8D8D",
"6. c #2F9595",
"7. c #279B9B",
"8. c #2E9A9A",
"9. c #3D9292",
"0. c #3E9B9B",
"q. c #27A7A7",
"w. c #2BADAD",
"e. c #35A4A4",
"r. c #34AAAA",
"t. c #3BA9A9",
"y. c #2AB4B4",
"u. c #3BB0B0",
"i. c #37BABA",
"p. c #3EBBBB",
"a. c #4C8181",
"s. c #4D8F8F",
"d. c #548686",
"f. c #548C8C",
"g. c #5D8C8C",
"h. c #409494",
"j. c #4A9191",
"k. c #459A9A",
"l. c #489C9C",
"z. c #539393",
"x. c #5E9090",
"c. c #6B8686",
"v. c #7C8383",
"b. c #708D8D",
"n. c #7D8D8D",
"m. c #649D9D",
"M. c #699F9F",
"N. c #729393",
"B. c #7C9494",
"V. c #7F9A9A",
"C. c #42ACAC",
"Z. c #59A1A1",
"A. c #55AAAA",
"S. c #5BA8A8",
"D. c #43B6B6",
"F. c #42BCBC",
"G. c #4DBCBC",
"H. c #55B2B2",
"J. c #5CB7B7",
"K. c #51BCBC",
"L. c #5ABCBC",
"P. c #64A0A0",
"I. c #69A3A3",
"U. c #63ABAB",
"Y. c #6CACAC",
"T. c #7CA2A2",
"R. c #72AAAA",
"E. c #7CAEAE",
"W. c #62B8B8",
"Q. c #69BBBB",
"!. c #75B3B3",
"~. c #7DB9B9",
"^. c #44C4C4",
"/. c #4BCBCB",
"(. c #50C5C5",
"). c #5FC3C3",
"_. c #55CECE",
"`. c #5BCCCC",
"'. c #51D2D2",
"]. c #5AD3D3",
"[. c #5FDDDD",
"{. c #66C0C0",
"}. c #6DC3C3",
"|. c #64C9C9",
" X c #6ACACA",
".X c #70C3C3",
"XX c #78C3C3",
"oX c #7FC9C9",
"OX c #66D7D7",
"+X c #61DADA",
"@X c #6CDEDE",
"#X c #71D5D5",
"$X c #7BD7D7",
"%X c #76DFDF",
"&X c #7DD8D8",
"*X c #67E3E3",
"=X c #6CE2E2",
"-X c #78E0E0",
";X c #74EAEA",
":X c #7DECEC",
">X c #838383",
",X c #818D8D",
"<X c #8C8C8C",
"1X c #869292",
"2X c #8D9292",
"3X c #839B9B",
"4X c #949494",
"5X c #949999",
"6X c #9B9B9B",
"7X c #84A3A3",
"8X c #8DA2A2",
"9X c #87ACAC",
"0X c #8EAEAE",
"qX c #96A3A3",
"wX c #9DA3A3",
"eX c #93ACAC",
"rX c #9FA9A9",
"tX c #86B5B5",
"yX c #86BABA",
"uX c #8BB8B8",
"iX c #98B3B3",
"pX c #A3A3A3",
"aX c #A5ABAB",
"sX c #ABABAB",
"dX c #A3B1B1",
"fX c #AAB1B1",
"gX c #B3B3B3",
"hX c #BBBBBB",
"jX c #98C3C3",
"kX c #82E8E8",
"lX c #8FECEC",
"zX c #96ECEC",
"xX c #85F0F0",
"cX c #8FF7F7",
"vX c #90F4F4",
"bX c #9EF3F3",
"nX c #AEF3F3",
"mX c #B3F5F5",
"MX c #BEF9F9",
"NX c #C4C4C4",
"BX c #CBCBCB",
"VX c gray83",
"CX c #DCDCDC",
"ZX c #CDFCFC",
"AX c #D8FEFE",
"SX c #E3E3E3",
"DX c #E9E9E9",
"FX c #E1FFFF",
"GX c None",
/* pixels */
"GXGXGXGXGXGXGXGXGXGXGXGXGXGXGXGXGXGXGXGXGXGXGXGXGXGXGXGXGXGXGXGXGXGXGXGXGXGXGXGXGXGXGXGXGXGXGXGXGXGXGXGXGXGXGXGXGXGXGXGXGXGXGXGXGXGXGXGXGXGXGXGXGXGXGXGXGXGXGXGX",
"GXGXGXGXGXGXGXGXGXGXGXGXGXGXGXGXGXGXGXGXGXGXGXGXGXGXGXGXGXGXGXGXGXGXGXVXhXsXsXgXhXhXGXGXGXGXGXGXGXGXGXGXGXGXGXGXGXGXGXGXGXGXGXGXGXGXGXGXGXGXGXGXGXGXGXGXGXGXGXGX",
"GXGXGXGXGXGXGXGXGXGXGXGXGXGXGXGXGXGXGXGXGXGXGXGXGXGXGXGXGXGXsX>X@.Q #.} W T e 6 6 6 R @.pX4X>XGXGXGXGXGXGXGXGXGXGXGXGXGXGXGXGXGXGXGXGXGXGXGXGXGXGXGXGXGXGXGXGXGX",
"GXGXGXGXGXGXGXGXGXGXGXGXGXGXGXGXGXGXGXGXGXGXGXGXGXGXGXGX>.e $                     X & 5 @.>X4X>X:.%.GXGXGXGXGXGXGXGXGXGXGXGXGXGXGXGXGXGXGXGXGXGXGXGXGXGXGXGXGXGX",
"GXGXGXGXGXGXGXGXGXGXGXGXGXGXGXGXGXGXGXGXGXGXGXGXGXGXGX;.T   $ q * X         X # X # $ * * e ` v.4X<X4X<X<XGXGXGXGXGXGXGXGXGXGXGXGXGXGXGXGXGXGXGXGXGXGXGXGXGXGXGX",
"GXGXGXGXGXGXGXGXGXGXGXGXGXGXGXGXGXGXGXGXGXGXGXGX_ ;.@.` Q r <XhX>XR q _ ;.v.>X6X6X4X<X>X` q $ # q R #.<X4X6XsXGXGXGXGXGXGXGXGXGXGXGXGXGXGXGXGXGXGXGXGXGXGXGXGXGX",
"GXGXGXGXGXGXGXGXGXGXGXGXGXGXGXGXGXGXGXGXGXfXW #.>X>.>XW 6 $ q hXgX4X6XpXpXsXsXsX6XpXpX6XpX6X<X%.e $   X 4 _ >XgXpXGXGXGXGXGXGXGXGXGXGXGXGXGXGXGXGXGXGXGXGXGXGXGX",
"GXGXGXGXGXGXGXGXGXGXGXGXGXGXGXGXGXGXGXCX>X4 4 Q >XpXsX2Xr _ :.4X6X6X6XpXpX6X4X6X6X4X6X4X4X6X6X6X4X>.r 4 4 # # %.sX6XGXGXGXGXGXGXGXGXGXGXGXGXGXGXGXGXGXGXGXGXGXGX",
"GXGXGXGXGXGXGXGXGXGXGXGXGXGXGXGXGXGXBX_ X       q >.>X@.%.5X9XY.V.6X5X2X<X<X<X<X<X<X<X<X4X<X4X<X3X3X6X>.4     * _ >XpX4XGXGXGXGXGXGXGXGXGXGXGXGXGXGXGXGXGXGXGXGX",
"GXGXGXGXGXGXGXGXGXGXGXGXGXGXGXGXGXhXe           # # e ;.,XB. XkX|.B.v.>X>X>Xv.v.>.>X>X>X>X<X>X,XyXkX3X<Xv.6     5 & ;.4X6XGXGXGXGXGXGXGXGXGXGXGXGXGXGXGXGXGXGXGX",
"GXGXGXGXGXGXGXGXGXGXGXGXGXGXGXGXsXq           $ ` e :.>X>.b. XbX).c.;.:.:.;.;.:.;.>.>.>.>.>.>X2X!.Y.v.>X>X>.q = 2.y   6 >X6XGXGXGXGXGXGXGXGXGXGXGXGXGXGXGXGXGXGX",
"GXGXGXGXGXGXGXGXGXGXGXGXGXGXGXgX6             #.%.%.:.;.>.aXM.A.I.v.;.%.%.;.%.%.%.;.%.%.;.;.>X>X>.>.>.>.>.v.;.v J.D     4 #.2XGXGXGXGXGXGXGXGXGXGXGXGXGXGXGXGXGX",
"GXGXGXGXGXGXGXGXGXGXGXGXGXGXhXq             4 6X%.;.%.;.4XgX*.$.$.>.;.#.@.#.#.#.#.#.#.#.#.>.;.%.%.%.;.;.;.;.:.$.k ,       4 T 4XGXGXGXGXGXGXGXGXGXGXGXGXGXGXGXGX",
"GXGXGXGXGXGXGXGXGXGXGXGXGXBXT               ;.<X#.#.;.>.<XgX>X@._ @.;.;._ _ _ _ ` ` _ @.:.;.` @.@.$.#.%.%.%.%.;.( $         4 e <XGXGXGXGXGXGXGXGXGXGXGXGXGXGXGX",
"GXGXGXGXGXGXGXGXGXGXGXGXCX_               4 sX>.` %.;.@.%.>X<X:.( ( ( #.%.( ( ) ) / ) %.#.) _ _ _ ` @._ @.#.#.#.%.6         * q Q :.GXGXGXGXGXGXGXGXGXGXGXGXGXGX",
"GXGXGXGXGXGXGXGXGXGXGXGX<XX       ; ;     Q pX@.` ;._ ( Q Q #.<X;._ W W _ $.{ I U Y O.| W Q Q ( ( ( ( _ _ _ } @.%.R         _ sX#._ GXGXGXGXGXGXGXGXGXGXGXGXGXGX",
"GXGXGXGXGXGXGXGXGXGXGXNXW       o h.k.o   T %.( %._ R R W ( #.>Xv.>X#.T T ! a.t./.^.0.N E T R W W W Q Q ( ( _ _ ` (         T sX6XR W GXGXGXGXGXGXGXGXGXGXGXGXGX",
"GXGXGXGXGXGXGXGXGXGXGX<X4 $       p f     e ;.>.%.@.#.#.#.;.;.%.#.;.;.T e x L _.ZXbXw.G z T T T T R R W W W W Q _ _           T pXW r e GXGXGXGXGXGXGXGXGXGXGXGX",
"GXGXGXGXGXGXGXGXGXGXCX( X 4               ( pXpX<X>X>.;.*.@._ Q ( ` #.T q w F (.MXlXe.b e e e e e z T T T T R R ( (           $ 4X;.q q GXGXGXGXGXGXGXGXGXGXGXGX",
"GXGXGXGXGXGXGXGXGXGX6X#   $ &             $ ( _ ;.%.` _ ( W R T T ( @.) e 8 k 9.e.6.U ' e q q q q q e e e r r r ( R           # ;.>.T 5 * GXGXGXGXGXGXGXGXGXGXGX",
"GXGXGXGXGXGXGXGXGXVXR       4 X           6 e @.#.( R T T e x a.I ! _ Q 5 5 T n p j 9 w W T q 6 q q q q e q q e Q e 4 q       6 ;.@.W > & GXGXGXGXGXGXGXGXGXGXGX",
"GXGXGXGXGXGXGXGXGXgX$       X 4         > e @.#.( T r e q q k }.l.E Q q * q T 4 5 5 4 4 4 w R e 6 6 6 6 q q q q Q 4 R <Xe $ #.%.#.R Q 4 $ $ GXGXGXGXGXGXGXGXGXGX",
"GXGXGXGXGXGXGXGXGX2XX         # > o = 3 o.@.Q Q T e q q 8 6 8 k k e W 4 * T 4 & & 4 6 q 6 4 4 e T e 6 5 6 6 6 q R X & :.;.T >X;.( e Q 6 & $ GXGXGXGXGXGXGXGXGXGX",
"GXGXGXGXGXGXGXGXGX#.            2 K e.G.j.m 8 6 q q 6 6 6 6 4 5 6 e T & e 6 5 6 w T R ( Q 6 & $ 4 e T q 5 4 6 6 e   6 7Xm.5 @.#.W e Q T & 4 GXGXGXGXGXGXGXGXGXGX",
"GXGXGXGXGXGXGXGXBXe X X X X   o P _.xX;Xq.f > $ 5 6 5 4 4 4 4 4 6 q e 6 q 5 T r e e e T W 6 $ $ $ $ 4 q T q 5 5 4   # c.g.e ( _ e T ( W 5 4 6 GXGXGXGXGXGXGXGXGX",
"GXGXGXGXGXGXGXGXhX6 # X X X   E U._.AXMXy.s @ X # 4 4 * > & & * 4 6 6 e * q q 6 4 4 4 q T q # $ $ $ $ $ > 8 Y a.<   # @._ W T 6 & R Q ) 6 6 6 GXGXGXGXGXGXGXGXGX",
"GXGXGXGXGXGXGXGX<X& $ $ $ # X $.z.u.%XOX7.t @ X X # * & $ & $ $ & 4 r 6 6 6 4 * $ $ & 4 q 4 # X # # # # # @ 2.W.9 4 e @.T q e T R Q E _ q q 6 GXGXGXGXGXGXGXGXGX",
"GXGXGXGXGXGXGXVX_ $ $ $ & & 6 ;.] Y A Z S l # X X X X $ # $ # # # 5 r 4 * $ # # # # $ & 6 e 6 X X X # r W $ , k . 6 %.#.( T q q T T T ) e q q R GXGXGXGXGXGXGXGX",
"GXGXGXGXGXGXGXNXe & * & & & q ;.( ! 1 , @ 6 q # X X X X X # # # # q * # X # X # X # X $ 4 e 4   X X $ @.@.R _ @.T ( R q 6 q z ( _ (  .H.H e T R GXGXGXGXGXGXGXGX",
"GXGXGXGXGXGXGXgXq 4 4 4 4 * R ;.` z $ # O X 4 w $ X X X X X X X 4 5 X X X X X X X X X $ $ q $ #       T W T _ W T e 6 * $ $ & e R Q z.&Xf.@.#.%.GXGXGXGXGXGXGXGX",
"GXGXGXGXGXGXGXgXe 6 5 5 5 4 @.>.%.e 5 $ # X X $ q 4 X X   X X X q X X X   X   X   X X # & 4 6 q       2 N w R 5 6 6 4 & # # 5 r z r ! +.! R W W GXGXGXGXGXGXGXGX",
"GXGXGXGXGXGXGXgXe 6 6 6 q ( >X<X%.4 q * # X X X # 6 6 X X + + 7 * X     X   X   . X X $ $ $ 6 e #   . 5.H.c q * 5 * 4 & $ $ e r T T R #.W W W Q GXGXGXGXGXGXGXGX",
"GXGXGXGXGXGXGXgXr q q q >.pX<X#.q 4 e > # X X X X . & w 1 a B F ; X           X X X X # 4 $ 6 q 4 # % P 3.c > 4 * # 6 * $ 6 T R R W ( %.Q ( Q ( GXGXGXGXGXGXGXGX",
"GXGXGXGXGXGXGXsXT e q T 6X6X<X_ q W z < # # X X X X X , K w.'.q.d + X   X       X X $ X 4 $ $ 6 6 6 6 5 q q $ * $ 4 6 & 4 r R R W Q _ %.( _ _ _ GXGXGXGXGXGXGXGX",
"GXGXGXGXGXGXGXhXW r r R 6X6X;.( Q &.l.L @ X X X   X X ; C -XAX@XV =       X   X X X $ # $ X X 4 4 4 * & r * $ * 4 & 4 & e R W Q Q ( #.%._ _ _ @.GXGXGXGXGXGXGXGX",
"GXGXGXGXGXGXGXNX_ r T ;.6X<X@.( #.&.U.9.@ X X X X X X = B ].nX`.A ; .             X $ $ X $ & 6 & & & q T * & $ & & & q W Q Q ( ( _ ;.#._ @.@.#.GXGXGXGXGXGXGXGX",
"GXGXGXGXGXGXGXBX;.T Q 6X4X>X#.@.;.} ^ 0 # X X X X   X O y 1.<.Z i 0 u i O       X X $ &   $ 6 6 4 6 q ( z 5 6 & $ $ 8 W Q Q ) _ ` ` >.@.#.#.%.%.GXGXGXGXGXGXGXGX",
"GXGXGXGXGXGXGXNX4XQ @.6X>X>.v.;.#.( W T 6 X X X X X X . 7 1 ; = o O 4.W.1     X   X $ >   # 6 6 4 6 e e X # 6 * $ 6 R Q ( ( _ _ ` #.>.#.%.%.%.%.GXGXGXGXGXGXGXGX",
"GXGXGXGXGXGXGXNX<X%.>X4X:.%.>X%._ ( Q W T q # X X X   # q . X X .   : u 8 6 #     X # 4   X 6 q $ X 6 X X q e 5 q R Q ( ( _ _ @.@.>.>.%.%.;.;.>.GXGXGXGXGXGXGXGX",
"GXGXGXGXGXGXGXGX6X<X6Xv.;.%.:.#._ ) ( W R T q $ X X   6 4   .   X         $ 6 6 # X X & # X 6 q $ $ $   # W r T Q Q Q _ _ _ @.#.%.>X;.;.;.;.>.>XGXGXGXGXGXGXGXGX",
"GXGXGXGXGXGXGXGX6X<X4X>X%.%.v.@.@._ ( Q Q R E e 6 # X q X X   X   X         X & 6 6 & $ > > 0 l w w   # T W Q _ _ ( _ _ ` #.#.#.;.>X;.;.>.>.>.<XGXGXGXGXGXGXGXGX",
"GXGXGXGXGXGXGXGX2X>X>X<X>.-.B.d.| } _ ( ( Q R R T q q 6 X   X   X     X X       X & 6 q 7 t g D  .c 4 W Q Q _ _ _ _ ` #.#.#.%.;.<X>X>.>.>X>X>X6XGXGXGXGXGXGXGXGX",
"GXGXGXGXGXGXGXGX6X>X>.v.V.Z.K.C.s.o.} _ ) ( Q W R T _ e 4 # X     X X     X   . X   X > b 8.p.i.6.M Q _ W ( @.@.#.#.%.%.%.;.;.>.<X>.v.>X>X>X<XGXGXGXGXGXGXGXGXGX",
"GXGXGXGXGXGXGXGXGX<X>Xv.P._.;X*XD.d.$.@._ _ ( Q W Q ` r e e 6 4 $ X   X   X       X   @ s ^.ZXnXp...) ( _ _ @.@.%.%.;.v.>.>.>.2X>X>X>X>X<X<X<XGXGXGXGXGXGXGXGXGX",
"GXGXGXGXGXGXGXGXGX4X<Xn.S.[.AXMX'.z.$.#.@._ _ ( ( @._ T T r e e q q 4 & $ $ $ $ & & 4 8 S F.mXzXp.d.&.#.#.@.@.#.;.;.;.1X1X1X1X4X>X>X<X4X4X2X6XGXGXGXGXGXGXGXGXGX",
"GXGXGXGXGXGXGXGXGX6X<X1XI._.vX:X(.x.*.%.#.@.` _ _ %.Q W R R r r e e e e q e q e q e e z M h.D.r.4.' _ #.;.>.;.;.>.>.c.g.Y.!.0X2X<X<X<X4X2X6XsXGXGXGXGXGXGXGXGXGX",
"GXGXGXGXGXGXGXGXGXGX6X<XV.U.{.L.Y.1X:.;.%.%.#.` #.%.( Q W W R R T T T T e e T e r r T T ) X.J [ ] ) _ @.%.%.:.<X4XqXR.D.'.[..X7X2X4X4X6X6X6XGXGXGXGXGXGXGXGXGXGX",
"GXGXGXGXGXGXGXGXGXGX6X6X2X3X7X7Xn.1X2X>X;.%.%.#.:.%._ _ ( Q Q W R R T T T T T T T R R ( #.) ) _ } #.#.*.;.;.>.>.<X8X}.=XZXcX+XuXaXpXpXsX6XsXGXGXGXGXGXGXGXGXGXGX",
"GXGXGXGXGXGXGXGXGXGXGXpX6X6X4XwX>X>X4X4X>X;.;.%.>X%.#.` ` _ ( ( Q W Q W W W W W W W _ ;.@.` #.%.%.;.>.>X>X<X<X<X4X5XQ.@XZXvX].tXwXpXpXpXsXGXGXGXGXGXGXGXGXGXGXGX",
"GXGXGXGXGXGXGXGXGXGXGX6X6X6X6XpX4X4X>X<X4X4X>.>.>X%.%.#.@.` ` _ _ _ _ ( ( ( ( Q _ ` >.%.#.%.;.:.>X;.;.#.>.>X;.>X5XwXyX#X*X+XXXeXpXpXpXsXsXGXGXGXGXGXGXGXGXGXGXGX",
"GXGXGXGXGXGXGXGXGXGXGXGXgXsX6XsX6X6X4X4X>X4X4X4X>X;.;.%.%.%.#.@.` ` ` ` ` ` ` ` @.>.:.%.@.` @.#.%.#.%.%.%.;.>.<XsXpXdXjX~.yXiXaXsXaXsXhXGXGXGXGXGXGXGXGXGXGXGXGX",
"GXGXGXGXGXGXGXGXGXGXGXGXNXVXsXsXpX6X4X4X4X4X<XpX6X>X>.>.;.;.%.%.%.#.#.@.@.@.@.%.>X:.;.#.@.#.#.%.%.;.;.;.>.>.>.sXhXpXgXfXdXdXsXsXsXsXNXNXGXGXGXGXGXGXGXGXGXGXGXGX",
"GXGXGXGXGXGXGXGXGXGXGXGXGXVXCXhXgXpXpX6X6X6X4XpX4X6X4Xv.>.>.>.;.;.;.;.%.%.%.;.<Xv.>.>.%.%.;.;.;.:.:.>.>.>X>X>X6XsXpXgXgXsXsXgXsXhXBXVXGXGXGXGXGXGXGXGXGXGXGXGXGX",
"GXGXGXGXGXGXGXGXGXGXGXGXGXGXVXCXBXgXsXpX6X6X6XpX4X4X6X6X<X>X>X>.>.>.>.>.>.>.<X>X>.<X>X;.;.;.>.>.v.>X>X>X<X<X<XpXpXsXhXgXgXgXgXhXVXCXGXGXGXGXGXGXGXGXGXGXGXGXGXGX",
"GXGXGXGXGXGXGXGXGXGXGXGXGXGXGXCXSXVXhXsXsXpXsXsX6X6X4X6X6X6X4X<X>X>X>X>X<X6X<X>X<X<X>.>X>X>X>X>X<X<X<X4X4X6XpXpXpXhXhXhXgXhXNXCXCXGXGXGXGXGXGXGXGXGXGXGXGXGXGXGX",
"GXGXGXGXGXGXGXGXGXGXGXGXGXGXGXsXCXSXCXNXhXsXgXsXpX6X6X6X6X6XpXpX6X4X<X6X6X<X<X<X<X<X<X<X<X<X4X4X<X6X4X6XpXsXsXpXgXNXNXhXNXBXSXSXGXGXGXGXGXGXGXGXGXGXGXGXGXGXGXGX",
"GXGXGXGXGXGXGXGXGXGXGXGXGXGXGXGXsXVXSXCXVXNXhXhXsXsXsXpXpX6X6X6XpXsXsXpX6X6X4X4X6X6XpXpXpXpXpXpX6X6X6XsXgXsXsXsXhXBXNXBXCXDXSXhXGXGXGXGXGXGXGXGXGXGXGXGXGXGXGXGX",
"GXGXGXGXGXGXGXGXGXGXGXGXGXGXGXGXGXgXVXSXCXCXVXNXhXgXgXsXsXsXsXsXsXgXgXsXpXpX6X6X6XpXpXpXsXsXgXhXsXsXhXgXsXgXgXhXBXBXVXSXDXCXsXGXGXGXGXGXGXGXGXGXGXGXGXGXGXGXGXGX",
"GXGXGXGXGXGXGXGXGXGXGXGXGXGXGXGXGXGXgXVXSXCXSXCXBXNXhXhXgXgXgXhXgXsXpXsXsXgXgXgXsXsXsXsXgXgXgXhXNXhXhXhXhXhXNXBXCXSXSXDXVXsXGXGXGXGXGXGXGXGXGXGXGXGXGXGXGXGXGXGX",
"GXGXGXGXGXGXGXGXGXGXGXGXGXGXGXGXGXGXhXgXBXSXSXCXCXVXVXNXBXNXNXgXgXhXgXsXgXgXgXgXhXhXhXgXhXgXNXNXhXhXhXhXNXBXCXSXSXDXDXBX6XGXGXGXGXGXGXGXGXGXGXGXGXGXGXGXGXGXGXGX",
"GXGXGXGXGXGXGXGXGXGXGXGXGXGXGXGXGXGXGXgXgXBXSXSXCXCXSXCXVXBXBXNXhXhXhXhXhXgXhXgXgXhXNXBXBXVXBXBXNXNXBXVXCXSXSXSXDXCXhXGXGXGXGXGXGXGXGXGXGXGXGXGXGXGXGXGXGXGXGXGX",
"GXGXGXGXGXGXGXGXGXGXGXGXGXGXGXGXGXGXGXGXsXsXNXCXSXDXSXCXCXCXVXVXVXBXNXNXNXNXNXNXBXBXBXBXBXBXVXVXCXSXSXSXDXDXDXSXBX4XGXGXGXGXGXGXGXGXGXGXGXGXGXGXGXGXGXGXGXGXGXGX",
"GXGXGXGXGXGXGXGXGXGXGXGXGXGXGXGXGXGXGXGXGXpXpXsXhXVXSXSXSXSXCXCXCXCXCXCXCXCXCXCXCXVXCXVXVXCXCXCXSXSXSXSXDXSXBXpX>.GXGXGXGXGXGXGXGXGXGXGXGXGXGXGXGXGXGXGXGXGXGXGX",
"GXGXGXGXGXGXGXGXGXGXGXGXGXGXGXGXGXGXGXGXGXGX<X4X4X6XgXBXCXSXSXSXSXSXCXCXCXCXCXCXCXCXCXCXCXSXSXSXSXDXDXCXNX6X;.GXGXGXGXGXGXGXGXGXGXGXGXGXGXGXGXGXGXGXGXGXGXGXGXGX",
"GXGXGXGXGXGXGXGXGXGXGXGXGXGXGXGXGXGXGXGXGXGXGX>X>X<X<X<X6XgXBXVXSXSXSXSXSXSXSXCXSXSXSXSXSXSXDXSXCXBXpX>X#.@.GXGXGXGXGXGXGXGXGXGXGXGXGXGXGXGXGXGXGXGXGXGXGXGXGXGX",
"GXGXGXGXGXGXGXGXGXGXGXGXGXGXGXGXGXGXGXGXGXGXGXGXGX:.>.;.;.;.>.>X6XsXhXBXVXCXCXSXSXCXCXVXBXhXsX<X;._ ( _ @.#.GXGXGXGXGXGXGXGXGXGXGXGXGXGXGXGXGXGXGXGXGXGXGXGXGXGX",
"GXGXGXGXGXGXGXGXGXGXGXGXGXGXGXGXGXGXGXGXGXGXGXGXGXGX%.%.#.#.@.` _ _ ( ) _ @.#.%.%.#.@._ Q E T T W ( _ _ #.#.GXGXGXGXGXGXGXGXGXGXGXGXGXGXGXGXGXGXGXGXGXGXGXGXGXGX",
"GXGXGXGXGXGXGXGXGXGXGXGXGXGXGXGXGXGXGXGXGXGXGXGXGXGXGX%.#.@._ _ ( Q W T e e q q q q q e T T R W Q ( _ @.#.GXGXGXGXGXGXGXGXGXGXGXGXGXGXGXGXGXGXGXGXGXGXGXGXGXGXGX",
"GXGXGXGXGXGXGXGXGXGXGXGXGXGXGXGXGXGXGXGXGXGXGXGXGXGXGXGX#.@._ _ ( Q W R T T r z T r T T T R W Q ( _ @.#.GXGXGXGXGXGXGXGXGXGXGXGXGXGXGXGXGXGXGXGXGXGXGXGXGXGXGXGX",
"GXGXGXGXGXGXGXGXGXGXGXGXGXGXGXGXGXGXGXGXGXGXGXGXGXGXGXGXGXGX@._ _ Q Q W W R T T R T R R Q Q Q _ _ @.GXGXGXGXGXGXGXGXGXGXGXGXGXGXGXGXGXGXGXGXGXGXGXGXGXGXGXGXGXGX",
"GXGXGXGXGXGXGXGXGXGXGXGXGXGXGXGXGXGXGXGXGXGXGXGXGXGXGXGXGXGXGXGX@._ _ ( ( Q Q Q Q Q Q ( ( _ _ } GXGXGXGXGXGXGXGXGXGXGXGXGXGXGXGXGXGXGXGXGXGXGXGXGXGXGXGXGXGXGXGX",
"GXGXGXGXGXGXGXGXGXGXGXGXGXGXGXGXGXGXGXGXGXGXGXGXGXGXGXGXGXGXGXGXGXGXGXGXGX_ ( _ _ ( _ GXGXGXGXGXGXGXGXGXGXGXGXGXGXGXGXGXGXGXGXGXGXGXGXGXGXGXGXGXGXGXGXGXGXGXGXGX",
"GXGXGXGXGXGXGXGXGXGXGXGXGXGXGXGXGXGXGXGXGXGXGXGXGXGXGXGXGXGXGXGXGXGXGXGXGXGXGXGXGXGXGXGXGXGXGXGXGXGXGXGXGXGXGXGXGXGXGXGXGXGXGXGXGXGXGXGXGXGXGXGXGXGXGXGXGXGXGXGX",
"GXGXGXGXGXGXGXGXGXGXGXGXGXGXGXGXGXGXGXGXGXGXGXGXGXGXGXGXGXGXGXGXGXGXGXGXGXGXGXGXGXGXGXGXGXGXGXGXGXGXGXGXGXGXGXGXGXGXGXGXGXGXGXGXGXGXGXGXGXGXGXGXGXGXGXGXGXGXGXGX",
"GXGXGXGXGXGXGXGXGXGXGXGXGXGXGXGXGXGXGXGXGXGXGXGXGXGXGXGXGXGXGXGXGXGXGXGXGXGXGXGXGXGXGXGXGXGXGXGXGXGXGXGXGXGXGXGXGXGXGXGXGXGXGXGXGXGXGXGXGXGXGXGXGXGXGXGXGXGXGXGX",
"GXGXGXGXGXGXGXGXGXGXGXGXGXGXGXGXGXGXGXGXGXGXGXGXGXGXGXGXGXGXGXGXGXGXGXGXGXGXGXGXGXGXGXGXGXGXGXGXGXGXGXGXGXGXGXGXGXGXGXGXGXGXGXGXGXGXGXGXGXGXGXGXGXGXGXGXGXGXGXGX",
"GXGXGXGXGXGXGXGXGXGXGXGXGXGXGXGXGXGXGXGXGXGXGXGXGXGXGXGXGXGXGXGXGXGXGXGXGXGXGXGXGXGXGXGXGXGXGXGXGXGXGXGXGXGXGXGXGXGXGXGXGXGXGXGXGXGXGXGXGXGXGXGXGXGXGXGXGXGXGXGX",
"GXGXGXGXGXGXGXGXGXGXGXGXGXGXGXGXGXGXGXGXGXGXGXGXGXGXGXGXGXGXGXGXGXGXGXGXGXGXGXGXGXGXGXGXGXGXGXGXGXGXGXGXGXGXGXGXGXGXGXGXGXGXGXGXGXGXGXGXGXGXGXGXGXGXGXGXGXGXGXGX",
"GXGXGXGXGXGXGXGXGXGXGXGXGXGXGXGXGXGXGXGXGXGXGXGXGXGXGXGXGXGXGXGXGXGXGXGXGXGXGXGXGXGXGXGXGXGXGXGXGXGXGXGXGXGXGXGXGXGXGXGXGXGXGXGXGXGXGXGXGXGXGXGXGXGXGXGXGXGXGXGX",
"GXGXGXGXGXGXGXGXGXGXGXGXGXGXGXGXGXGXGXGXGXGXGXGXGXGXGXGXGXGXGXGXGXGXGXGXGXGXGXGXGXGXGXGXGXGXGXGXGXGXGXGXGXGXGXGXGXGXGXGXGXGXGXGXGXGXGXGXGXGXGXGXGXGXGXGXGXGXGXGX"
};
