/* XPM */
static char *b12aa58b18d34440b3a0a06c7791e2c5[] = {
/* columns rows colors chars-per-pixel */
"32 32 114 2 ",
"   c #040404",
".  c #040B0B",
"X  c #0B0B0B",
"o  c #100F0F",
"O  c #0E1313",
"+  c #0B1B1B",
"@  c #141313",
"#  c #181717",
"$  c #141A1A",
"%  c #1C1C1C",
"&  c #062323",
"*  c #112424",
"=  c #1A2727",
"-  c #122C2C",
";  c #1C2C2C",
":  c #103333",
">  c #173C3C",
",  c #232323",
"<  c #242828",
"1  c #2C2D2D",
"2  c #2A3232",
"3  c #223D3D",
"4  c #2E3939",
"5  c #333333",
"6  c #353838",
"7  c #3B3B3B",
"8  c #1E4242",
"9  c #234343",
"0  c #2B4646",
"q  c #3E4343",
"w  c #265B5B",
"e  c #2F5858",
"r  c #345454",
"t  c #3C5050",
"y  c #385E5E",
"u  c #266565",
"i  c #3D6666",
"p  c #3B6D6D",
"a  c #2F7C7C",
"s  c #3F7B7B",
"d  c #434444",
"f  c #474B4B",
"g  c #4C4D4D",
"h  c #465555",
"j  c #4F5959",
"k  c #535353",
"l  c #585757",
"z  c #545A5A",
"x  c #5B5B5B",
"c  c #476666",
"v  c #486565",
"b  c #4C6969",
"n  c #566161",
"m  c #596464",
"M  c #506F6F",
"N  c #5E6D6D",
"B  c #4F7575",
"V  c #4B7D7D",
"C  c #5B7676",
"Z  c #646464",
"A  c #686767",
"S  c #676C6C",
"D  c #6B6B6B",
"F  c #737373",
"G  c #737B7B",
"H  c #7C7C7C",
"J  c #398686",
"K  c #4E8585",
"L  c #6A8787",
"P  c #708686",
"I  c #7D8383",
"U  c #798D8D",
"Y  c #4CA2A2",
"T  c #48A8A8",
"R  c #53A3A3",
"E  c #55A9A9",
"W  c #70A6A6",
"Q  c #70ADAD",
"!  c #62BDBD",
"~  c #73B7B7",
"^  c #7BB2B2",
"/  c #77BCBC",
"(  c #68C7C7",
")  c #69CACA",
"_  c #74CBCB",
"`  c #838383",
"'  c #878888",
"]  c #8C8C8C",
"[  c #859090",
"{  c #8C9393",
"}  c #8B9D9D",
"|  c #949494",
" . c #969C9C",
".. c #9C9C9C",
"X. c #83A2A2",
"o. c #88A3A3",
"O. c #8DB3B3",
"+. c #98B5B5",
"@. c #A3A3A3",
"#. c #A8A7A7",
"$. c #ADAEAE",
"%. c #A3B3B3",
"&. c #B4B4B4",
"*. c #B8B6B6",
"=. c #BBBBBB",
"-. c #82C5C5",
";. c #84E3E3",
":. c gray77",
">. c #C8C7C7",
",. c #CBCBCB",
"<. c #D4D4D4",
"1. c #DDDDDD",
"2. c gray88",
"3. c None",
/* pixels */
"3.3.3.3.3.3.3.3.3.3.3.3.3.3.] H ` 3.3.3.3.3.3.3.3.3.3.3.3.3.3.3.",
"3.3.3.3.3.3.3.3.3.3.3.x 7 , , , < d A H 3.3.3.3.3.3.3.3.3.3.3.3.",
"3.3.3.3.3.3.3.3.3.D H d H F H ] ] ` D k d Z ..3.3.3.3.3.3.3.3.3.",
"3.3.3.3.3.3.3.Z @ < A G ^ } ] ] ] ] ] X.S , q H 3.3.3.3.3.3.3.3.",
"3.3.3.3.3.3.k .   d A [ Q P F F D F H U ` A e = l 3.3.3.3.3.3.3.",
"3.3.3.3.3.Z     , F D ` F Z m x n A Z Z A D l . O l 3.3.3.3.3.3.",
"3.3.3.3.3.% + : 6 F x x F A g V E v g g k l x @ X D l 3.3.3.3.3.",
"3.3.3.3.k O   . 1 H D m x x q V ! y 7 7 7 d g $   d l 3.3.3.3.3.",
"3.3.3.3.%   X . 5 l f 7 i h 5 4 3 5 7 5 5 5 7 7 1 k g % 3.3.3.3.",
"3.3.3.H o   9 Y p 2 1 < 1 6 1 5 5 d , < 1 2 < q m k d < 3.3.3.3.",
"3.3.3.x # # V ) u o # % % 1 1 < % 1 , o % 0 0 7 g 7 g 7 3.3.3.3.",
"3.3.3.d % 1 n 3 = % X o @ % @ o X % , . 5 g q d 1 d M v k 3.3.3.",
"3.3.3.g 1 x x , X # % + - O   . X # < @ 9 t 1 % = 7 j x l 3.3.3.",
"3.3.3.l k ] l r @ . O a T &     X @ % , 2 1 % , 6 g x x x 3.3.3.",
"3.3.3.D D ` A v $ . X u J > *   X @ % , 5 , # 5 k l D A D 3.3.3.",
"3.3.3.] ` F Z g 5 @ X % . + ; @ o @ , , % 1 7 k x Z F F H 3.3.3.",
"3.3.3.] I L C x k 7 1 @       X # < w r 2 k x Z A F H H ] 3.3.3.",
"3.3.3.3.U _ ( N l k k 7 < % @ X o 9 ( R x Z A G I ] ` ] 3.3.3.3.",
"3.3.3.3.{ / ~ G A Z x g f d 7 7 7 h K B A F ` W _ o.| ..3.3.3.3.",
"3.3.3.3. . .{ ] H H A x k k g k l A A D F I { -.;.O.@.@.3.3.3.3.",
"3.3.3.3.3.*.#.| | | H F D A Z A F D A F F H @.%.+.$.*.3.3.3.3.3.",
"3.3.3.3.3.3.,.&.@...| ] ` H H ` ` H H ` ] | @.*.*.>.3.3.3.3.3.3.",
"3.3.3.3.3.3.:.<.>.&.#.@...@...| | | ....@.#.=.,.<.,.3.3.3.3.3.3.",
"3.3.3.3.3.3.3.:.1.<.:.=.&.&.$.$.&.&.=.=.=.:.<.1.:.3.3.3.3.3.3.3.",
"3.3.3.3.3.3.3.3.=.<.1.1.,.,.>.>.,.,.<.<.1.2.<.@.3.3.3.3.3.3.3.3.",
"3.3.3.3.3.3.3.3.3...$.>.<.1.1.2.1.2.1.<.:...3.3.3.3.3.3.3.3.3.3.",
"3.3.3.3.3.3.3.3.3.3.F F H ] ] | | { H A Z 3.3.3.3.3.3.3.3.3.3.3.",
"3.3.3.3.3.3.3.3.3.3.3.A l g d 7 7 d g l A 3.3.3.3.3.3.3.3.3.3.3.",
"3.3.3.3.3.3.3.3.3.3.3.3.3.3.l l l l 3.3.3.3.3.3.3.3.3.3.3.3.3.3.",
"3.3.3.3.3.3.3.3.3.3.3.3.3.3.3.3.3.3.3.3.3.3.3.3.3.3.3.3.3.3.3.3.",
"3.3.3.3.3.3.3.3.3.3.3.3.3.3.3.3.3.3.3.3.3.3.3.3.3.3.3.3.3.3.3.3.",
"3.3.3.3.3.3.3.3.3.3.3.3.3.3.3.3.3.3.3.3.3.3.3.3.3.3.3.3.3.3.3.3."
};
